<?xml version="1.0" encoding="utf-8"?>
<!-- Generator: Adobe Illustrator 26.3.0, SVG Export Plug-In . SVG Version: 6.00 Build 0)  -->
<svg version="1.1" id="KP_xA0_Imagen_00000043455057495785182700000007346867154909978761_"
	 xmlns="http://www.w3.org/2000/svg" xmlns:xlink="http://www.w3.org/1999/xlink" x="0px" y="0px" viewBox="0 0 982 967"
	 style="enable-background:new 0 0 982 967;" xml:space="preserve">
<style type="text/css">
	.st0{fill:#FEFEFE;}
</style>
<g>
	<path d="M316.31,622.89c0-92.58,0-185.17,0-277.75c1.77-4.25,4.91-5.62,9.5-5.57c18.98,0.21,37.96,0.09,56.94,0.09
		c10.28,0,12.84,2.57,12.85,13.07c0.02,28.64,0,57.28,0.02,85.92c0,1.65-0.26,3.32,0.43,5.66c5.65-8.11,10.61-16.13,15.89-23.91
		c17.1-25.21,34.93-49.93,51.65-75.4c2.51-3.83,5.38-5.51,10.2-5.46c25.14,0.26,50.28,0.17,75.42,0.08
		c3.57-0.01,6.37,0.39,8.22,4.08c1.91,3.8,1.46,6.77-1.06,10.09c-23.06,30.36-46.35,60.55-69.4,90.92
		c-4.83,6.37-9.61,12.78-14.64,18.98c-2.69,3.32-2.9,6.17-0.62,9.9c19.06,31.08,37.84,62.34,56.81,93.48
		c9.61,15.78,19.11,31.63,28.74,47.4c4.62,7.56,0.84,13.91-8.02,13.91c-23.98,0.01-47.95-0.14-71.93,0.12
		c-4.85,0.05-7.63-1.62-9.96-5.7c-16.47-28.94-32.96-57.86-49.54-86.74c-2.93-5.1-3.49-5.22-7.13-0.66
		c-3.03,3.79-6.54,7.11-9.95,10.51c-3.76,3.75-5.28,8.06-5.22,13.46c0.23,19.15,0.09,38.29,0.09,57.44c0,3.23-0.27,6.29-2.72,8.79
		c-1.86,1.9-3.94,2.82-6.64,2.81c-20.65-0.06-41.29-0.1-61.94,0.03C320.09,628.46,317.92,626.25,316.31,622.89z"/>
	<path class="st0" d="M316.31,622.89c4.44,5.37,10.46,5.03,16.63,4.97c16.98-0.19,33.96-0.06,50.94-0.07
		c6.94,0,10.33-3.32,10.33-10.11c0-20.64,0.06-41.28-0.06-61.92c-0.02-3.04,0.73-5.31,2.87-7.53c5.2-5.38,10.32-10.86,15.11-16.6
		c2.68-3.21,3.59-2.19,5.29,0.8c17.22,30.36,34.63,60.62,51.81,91.01c1.89,3.35,3.91,4.49,7.75,4.46c24.3-0.2,48.61-0.28,72.91,0.05
		c4.73,0.06,5.49-2.99,7.53-5.67c2-2.62,0.44-4.18-0.72-6.1c-29.05-47.9-58.04-95.83-87.22-143.66c-2.02-3.3-1.66-5.19,0.58-8.11
		c28.59-37.19,56.95-74.56,85.63-111.69c2.62-3.4,1.82-5.6,0.53-8.79c-1.32-3.28-3.41-3.77-6.56-3.75
		c-25.47,0.11-50.94,0.13-76.4-0.02c-3.37-0.02-5.33,1.02-7.22,3.81c-22.88,33.72-45.89,67.34-68.86,100.99
		c-0.7,1.03-1.43,2.04-2.96,4.2c0-2.94,0-4.52,0-6.09c0-31.13,0-62.26,0-93.38c0-6.1-3.29-9.44-9.33-9.44
		c-17.31-0.01-34.62,0.12-51.93-0.07c-6.17-0.07-12.19-0.4-16.63,4.97c-1.13-5.12,0.87-6.15,5.99-6.14
		c90.92,0.2,181.84,0.14,272.75,0.14c-0.35,5.81-4.03,10.09-7.18,14.38c-10.45,14.22-21.38,28.09-32.04,42.15
		c-0.3,0.4-0.68,0.74-0.94,1.17c-0.82,1.35-2.96,2.42-1.99,4.16c0.74,1.32,2.76,0.68,4.22,0.68c24.64,0.03,49.29-0.07,73.93,0.05
		c17.92,0.09,31.27,10.3,34.42,27.37c1.9,10.27,2.54,20.89-2.88,30.72c-6.77,12.27-18.37,15.36-30.95,15.49
		c-30.3,0.31-60.61,0.1-90.92,0.1c-7.66,0-15.32,0.11-22.98-0.05c-3.89-0.08-4.98,1.53-5.35,5.3c-0.97,9.97,2.24,18.27,7.47,26.67
		c23.06,37.03,45.33,74.55,68.04,111.79c0.61,0.99,1.24,1.98,1.76,3.38c-0.01-26.4-0.04-52.49,0.02-78.59
		c0.02-6.39,0.91-7.27,7.21-7.31c12.32-0.08,24.65,0.27,36.96-0.09c18.74-0.56,37.21-3.06,54.56-10.65
		c28.09-12.3,47.7-32.47,53.95-63.04c10.34-50.59-13.67-96.45-62.16-113.98c-9.28-3.35-18.75-5.81-28.52-7.21
		c-1.76-0.25-4.2,0.34-4.7-2.48c32.14,0,64.28,0.05,96.41-0.08c2.98-0.01,3.58,0.6,3.58,3.58c-0.1,94.25-0.1,188.5,0,282.75
		c0,2.98-0.6,3.58-3.58,3.58c-141.21-0.09-282.41-0.11-423.62,0.03C313.67,629.01,317.26,625.01,316.31,622.89z"/>
	<path d="M633.55,339.14c11.14,0,22.24,1.36,33.05,4.06l0,0c29.52,7.38,53.23,22.74,68.14,50.06
		c17.89,32.78,14.68,77.99-7.95,105.87c-16.59,20.45-38.92,30.99-64.34,35.85c-21.78,4.17-43.79,2.64-65.72,2.66
		c-4.97,0.01-5.84,1.35-5.79,6c0.25,25.81,0.12,51.61,0.12,77.42l0,0c0,1.69-2.23,2.3-3.1,0.85c-5.56-9.23-10.76-17.89-16.01-26.52
		c-12.04-19.77-24.12-39.51-36.17-59.27c-7.86-12.9-15.76-25.78-23.47-38.77c-2.13-3.59-0.93-7.8-0.98-11.72
		c-0.13-11.63-0.05-11.62,11.4-11.63c36.96-0.05,73.93,0.11,110.88-0.26c17.01-0.17,27.86-7.97,30.71-22.3
		c3.08-15.5,1.36-30.27-11.67-41.45c-5.95-5.1-13.17-6.89-20.83-6.91c-25.64-0.05-51.28-0.02-76.92-0.02l0,0
		c-2.66,0-4.17-3.05-2.56-5.17c2.78-3.67,5.41-7.14,8.04-10.61c9.39-12.39,18.87-24.72,28.13-37.21l0.08-0.1
		c5.04-6.82,13.01-10.85,21.49-10.85H633.55z"/>
</g>
</svg>
